# xmcd CD database file
#
# Track frame offsets:
#	150
#	13430
#	26000
#	39775
#	53703
#	66218
#	79853
#	94078
#	107438
#	120045
#	133485
#	145835
#	163858
#	177870
#	191428
#	203430
#
# Disc length: 2869 seconds
#
# Revision: 0
# Processed by: cddbd v1.5.1PL2 Copyright (c) Steve Scherf et al.
# Submitted via: CDex 1.70beta2
#
DISCID=d00b3310
DTITLE=Graeme Bell and His Australian Jazz Band - Australian Jazz Archives Series
DYEAR=1950
DGENRE=Jazz
TTITLE0=Mississippi Mud
TTITLE1=I Wish I Could Shimmy Like My Sister Kate
TTITLE2=Fidgety Feet
TTITLE3=Play It A Long Time Papa
TTITLE4=Black And White Rag
TTITLE5=Wolverine Blues
TTITLE6=Sobbin' Blues
TTITLE7=Maple Leaf Rag
TTITLE8=At A Georgia Camp Meeting
TTITLE9=Irish Black Bottom
TTITLE10=My Baby Just Cares For Me
TTITLE11=Mobile Bay
TTITLE12=Jumbuck Jamboree
TTITLE13=Old Miss Rag
TTITLE14=Big Chief Battle Ax
TTITLE15=Big Bear Stomp
EXTD=YEAR: 1950
EXTT0=
EXTT1=
EXTT2=
EXTT3=
EXTT4=
EXTT5=
EXTT6=
EXTT7=
EXTT8=
EXTT9=
EXTT10=
EXTT11=
EXTT12=
EXTT13=
EXTT14=
EXTT15=
PLAYORDER=
